<?xml version="1.0" encoding="UTF-8" standalone="no"?>
<!-- Created with Inkscape (http://www.inkscape.org/) -->

<svg
   width="94.816109mm"
   height="13.091253mm"
   viewBox="0 0 94.816109 13.091253"
   version="1.1"
   id="svg1"
   xmlns="http://www.w3.org/2000/svg"
   xmlns:svg="http://www.w3.org/2000/svg">
  <defs
     id="defs1" />
  <path
     style="fill:#c69f00;fill-opacity:1;fill-rule:evenodd;stroke:none;stroke-width:0.389906;stroke-dasharray:none"
     id="path245-8"
     d="m 404.48571,418.14317 -1.25467,-1.29919 -1.68049,0.66188 0.84789,-1.59474 -1.14878,-1.3937 1.7787,0.31358 0.9705,-1.52323 0.2514,1.78855 1.74859,0.45229 -1.62332,0.7918 z"
     transform="matrix(0.69330655,0,0,0.66626557,-200.67827,-274.79575)" />
  <path
     style="fill:#ffd42a;fill-opacity:1;fill-rule:evenodd;stroke:none;stroke-width:0.358251;stroke-dasharray:none"
     id="path245-0-1"
     d="m 404.48571,418.14317 -1.25467,-1.29919 -1.68049,0.66188 0.84789,-1.59474 -1.14878,-1.3937 1.7787,0.31358 0.9705,-1.52323 0.2514,1.78855 1.74859,0.45229 -1.62332,0.7918 z"
     transform="matrix(0.81189415,0,0,0.67393614,-242.61019,-278.54304)" />
  <path
     style="fill:#ffdd55;fill-opacity:1;fill-rule:evenodd;stroke:none;stroke-width:0.25365;stroke-dasharray:none"
     id="path245-4-8"
     d="m 404.48571,418.14317 -1.25467,-1.29919 -1.68049,0.66188 0.84789,-1.59474 -1.14878,-1.3937 1.7787,0.31358 0.9705,-1.52323 0.2514,1.78855 1.74859,0.45229 -1.62332,0.7918 z"
     transform="matrix(1.1985781,0,0,0.91065496,-391.80522,-375.80378)" />
  <path
     style="fill:#ffd42a;fill-opacity:1;fill-rule:evenodd;stroke:none;stroke-width:0.289648;stroke-dasharray:none"
     id="path245-4-7-2"
     d="m 404.48571,418.14317 -1.25467,-1.29919 -1.68049,0.66188 0.84789,-1.59474 -1.14878,-1.3937 1.7787,0.31358 0.9705,-1.52323 0.2514,1.78855 1.74859,0.45229 -1.62332,0.7918 z"
     transform="matrix(1.0378559,0,0,0.80651868,-326.93386,-327.15016)" />
  <path
     style="fill:#c7a836;fill-opacity:1;fill-rule:evenodd;stroke:none;stroke-width:0.327115;stroke-dasharray:none"
     id="path245-4-7-9-6"
     d="m 404.48571,418.14317 -1.25467,-1.29919 -1.68049,0.66188 0.84789,-1.59474 -1.14878,-1.3937 1.7787,0.31358 0.9705,-1.52323 0.2514,1.78855 1.74859,0.45229 -1.62332,0.7918 z"
     transform="matrix(0.85139734,0,0,0.77082594,-256.39838,-309.22435)" />
  <path
     style="font-style:italic;font-weight:bold;font-size:7.76111px;line-height:0;font-family:Genos;-inkscape-font-specification:'Genos Bold Italic';fill:#262d88;fill-opacity:1;stroke-width:0.265;stroke-dashoffset:30.8981"
     d="m 0.64661228,6.8479464 q 0.08537,-0.62865 0.325967,-0.993422 0.24835502,-0.372534 0.62088802,-0.551039 0.372534,-0.178506 0.845961,-0.232834 0.481189,-0.05433 1.024467,-0.05433 0.325967,0 0.613128,0.02328 0.294922,0.01552 0.589844,0.05433 0.310444,0.04657 0.395817,0.162983 0.09313,0.108656 0.06209,0.318206 l -0.05433,0.388055 q -0.217311,-0.08537 -0.512234,-0.1397 -0.294922,-0.05433 -0.597605,-0.07761 -0.302683,-0.03104 -0.543278,-0.03104 -0.465666,0 -0.76835,0.07761 -0.294922,0.07761 -0.465666,0.318205 -0.162984,0.240595 -0.232834,0.729544 -0.06209,0.465667 0.03104,0.714023 0.100894,0.240594 0.395817,0.325966 0.302683,0.07761 0.814916,0.07761 0.232833,0 0.48895,-0.02328 0.256117,-0.02328 0.543278,-0.06985 0.287161,-0.05433 0.597605,-0.116417 l -0.05433,0.357011 q -0.02328,0.194028 -0.155222,0.318206 -0.124178,0.116417 -0.457905,0.155222 -0.294923,0.04657 -0.613128,0.06209 -0.318206,0.02328 -0.636411,0.02328 -0.644172,0 -1.109839,-0.06985 -0.457905,-0.06985 -0.745066,-0.256116 -0.27940002,-0.194028 -0.38805602,-0.551039 -0.100894,-0.364772 -0.01552,-0.939094 z m 6.31755002,1.808338 q -0.442383,0 -0.776111,-0.06985 -0.333727,-0.06985 -0.543277,-0.240594 -0.20955,-0.178506 -0.287161,-0.48895 -0.07761,-0.318206 -0.01552,-0.791633 0.07761,-0.512234 0.232834,-0.822678 0.162983,-0.318205 0.411338,-0.481189 0.256117,-0.170744 0.597606,-0.225072 0.341489,-0.06209 0.776111,-0.06209 0.442383,0 0.76835,0.06985 0.333728,0.06985 0.535516,0.248356 0.20955,0.170744 0.2794,0.481188 0.07761,0.310445 0.01552,0.791634 -0.07761,0.512233 -0.232834,0.830438 -0.155222,0.310445 -0.403577,0.481189 -0.248356,0.162984 -0.589845,0.225072 -0.333728,0.05433 -0.76835,0.05433 z m 0.05433,-0.566561 q 0.20955,0 0.357011,-0.07761 0.155222,-0.08537 0.256117,-0.302683 0.100894,-0.225072 0.155222,-0.644172 0.06209,-0.4191 0.02328,-0.636411 -0.03881,-0.225073 -0.170744,-0.302684 -0.124178,-0.08537 -0.333728,-0.08537 -0.20955,0 -0.364772,0.08537 -0.155222,0.07761 -0.263878,0.302684 -0.100894,0.217311 -0.162983,0.636411 -0.06209,0.4191 -0.01552,0.644172 0.04657,0.217311 0.178505,0.302683 0.131939,0.07761 0.34149,0.07761 z m 2.561172,-2.211916 h 0.2794 l 0.0388,-0.302683 q 0.04657,-0.357011 0.2328337,-0.605367 0.186266,-0.256117 0.62865,-0.2794 0.287161,-0.01552 0.613127,-0.0078 0.325967,0.0078 0.613128,0.03104 0.294922,0.02328 0.465667,0.03881 l -0.08537,0.605367 q -0.04657,-0.01552 -0.170744,-0.02328 -0.116417,-0.01552 -0.271639,-0.02328 -0.155222,-0.0078 -0.287161,-0.0078 -0.131939,-0.0078 -0.201789,-0.0078 -0.217311,0 -0.294922,0.09313 -0.06985,0.09313 -0.09313,0.263878 l -0.03105,0.225072 h 2.072217 l -0.08537,0.605366 h -2.072216 l -0.294922,2.126545 H 9.8357803 q -0.225073,0 -0.2794,-0.07761 -0.05433,-0.08537 -0.03105,-0.2794 l 0.248356,-1.769533 h -0.287161 z m 3.1820547,0.01552 0.2794,-0.01552 0.03881,-0.302683 q 0.04657,-0.357011 0.232834,-0.605367 0.186266,-0.256117 0.62865,-0.2794 0.287161,-0.01552 0.613127,-0.0078 0.325967,0.0078 0.613128,0.03104 0.294922,0.02328 0.465667,0.03881 l -0.07761,0.605367 q -0.05433,-0.01552 -0.178505,-0.02328 -0.116417,-0.01552 -0.271639,-0.02328 -0.147461,-0.0078 -0.287161,-0.0078 -0.131939,-0.0078 -0.201789,-0.0078 -0.217311,0 -0.294922,0.09313 -0.06985,0.09313 -0.09313,0.263878 l -0.03104,0.225072 h 1.280583 l -0.08537,0.605366 h -1.280583 l -0.294922,2.126545 h -0.799394 q -0.225073,0 -0.2794,-0.07761 -0.05433,-0.08537 -0.03104,-0.2794 l 0.248356,-1.769533 -0.2794,-0.01552 z m 4.656663,2.762955 q -0.543278,0 -0.884767,-0.06209 -0.341488,-0.06985 -0.527755,-0.232833 -0.178506,-0.170744 -0.217311,-0.465667 -0.03881,-0.294922 0.02328,-0.760588 0.09313,-0.613128 0.310445,-0.970139 0.217311,-0.364772 0.659694,-0.519994 0.442383,-0.155223 1.195211,-0.155223 0.884766,0 1.202972,0.287161 0.318205,0.287162 0.232833,0.900289 l -0.08537,0.597606 h -2.157589 q 0.02328,-0.162984 0.108656,-0.271639 0.09313,-0.116417 0.294922,-0.116417 h 0.776111 l 0.02328,-0.162983 q 0.03105,-0.310445 -0.06985,-0.473428 -0.100894,-0.162983 -0.450144,-0.162983 -0.287161,0 -0.457905,0.08537 -0.162984,0.08537 -0.256117,0.302683 -0.09313,0.217311 -0.155222,0.644172 -0.05433,0.364773 -0.0078,0.5588 0.05433,0.186267 0.232833,0.256117 0.186267,0.06209 0.551039,0.06209 0.131939,0 0.357011,-0.0078 0.225072,-0.0078 0.465666,-0.01552 0.240595,-0.01552 0.4191,-0.02328 0.178506,-0.01552 0.225072,-0.03104 l -0.01552,0.1397 q -0.01552,0.108655 -0.06985,0.232833 -0.05433,0.116417 -0.162983,0.194028 -0.155222,0.108655 -0.535517,0.1397 -0.372533,0.03104 -1.024466,0.03104 z m 3.98921,0 q -0.543278,0 -0.884766,-0.06209 -0.341489,-0.06985 -0.527756,-0.232833 -0.178505,-0.170744 -0.217311,-0.465667 -0.03881,-0.294922 0.02328,-0.760588 0.09313,-0.613128 0.310445,-0.970139 0.217311,-0.364772 0.659694,-0.519994 0.442383,-0.155223 1.195211,-0.155223 0.884766,0 1.202972,0.287161 0.318205,0.287162 0.232833,0.900289 l -0.08537,0.597606 h -2.157588 q 0.02328,-0.162984 0.108655,-0.271639 0.09313,-0.116417 0.294922,-0.116417 h 0.776111 l 0.02328,-0.162983 q 0.03104,-0.310445 -0.06985,-0.473428 -0.100895,-0.162983 -0.450145,-0.162983 -0.287161,0 -0.457905,0.08537 -0.162984,0.08537 -0.256117,0.302683 -0.09313,0.217311 -0.155222,0.644172 -0.05433,0.364773 -0.0078,0.5588 0.05433,0.186267 0.232833,0.256117 0.186267,0.06209 0.551039,0.06209 0.131939,0 0.357011,-0.0078 0.225072,-0.0078 0.465666,-0.01552 0.240595,-0.01552 0.4191,-0.02328 0.178506,-0.01552 0.225073,-0.03104 l -0.01552,0.1397 q -0.01552,0.108655 -0.06985,0.232833 -0.05433,0.116417 -0.162983,0.194028 -0.155222,0.108655 -0.535516,0.1397 -0.372534,0.03104 -1.024467,0.03104 z m 3.282949,-0.01552 q -0.543278,0 -0.760589,-0.178506 -0.217311,-0.186266 -0.147461,-0.651933 l 0.380295,-2.700866 q 0.02328,-0.170744 0.06985,-0.263878 0.04657,-0.09313 0.1397,-0.124177 0.100894,-0.03104 0.2794,-0.03104 h 0.760588 q -0.0078,0.02328 -0.0388,0.170744 -0.03105,0.147462 -0.06209,0.325967 l -0.34925,2.491316 q -0.03881,0.2794 0.0078,0.395817 0.05433,0.108655 0.248356,0.108655 0.06985,0 0.147461,-0.01552 0.08537,-0.01552 0.100894,-0.02328 l -0.05433,0.426861 q -0.05433,0.0078 -0.20955,0.03881 -0.155222,0.03104 -0.512233,0.03104 z m 2.762949,0.01552 q -0.543277,0 -0.884766,-0.06209 -0.341489,-0.06985 -0.527756,-0.232833 -0.178505,-0.170744 -0.217311,-0.465667 -0.0388,-0.294922 0.02328,-0.760588 0.09313,-0.613128 0.310444,-0.970139 0.217311,-0.364772 0.659694,-0.519994 0.442384,-0.155223 1.195211,-0.155223 0.884767,0 1.202972,0.287161 0.318206,0.287162 0.232834,0.900289 l -0.08537,0.597606 h -2.157588 q 0.02328,-0.162984 0.108655,-0.271639 0.09313,-0.116417 0.294923,-0.116417 h 0.776111 l 0.02328,-0.162983 q 0.03104,-0.310445 -0.06985,-0.473428 -0.100894,-0.162983 -0.450144,-0.162983 -0.287161,0 -0.457906,0.08537 -0.162983,0.08537 -0.256116,0.302683 -0.09313,0.217311 -0.155223,0.644172 -0.05433,0.364773 -0.0078,0.5588 0.05433,0.186267 0.232833,0.256117 0.186267,0.06209 0.551039,0.06209 0.131939,0 0.357011,-0.0078 0.225073,-0.0078 0.465667,-0.01552 0.240594,-0.01552 0.4191,-0.02328 0.178505,-0.01552 0.225072,-0.03104 l -0.01552,0.1397 q -0.01552,0.108655 -0.06985,0.232833 -0.05433,0.116417 -0.162983,0.194028 -0.155223,0.108655 -0.535517,0.1397 -0.372533,0.03104 -1.024467,0.03104 z m 3.709811,-0.01552 q -0.186267,0 -0.403578,-0.0078 -0.20955,-0.0078 -0.411339,-0.03105 -0.194028,-0.02328 -0.357011,-0.06985 -0.131939,-0.03104 -0.217311,-0.07761 -0.08537,-0.05433 -0.108656,-0.194027 -0.02328,-0.147462 0.01552,-0.457906 0.232833,0.08537 0.481188,0.1397 0.256117,0.04657 0.496711,0.06985 0.240595,0.01552 0.450145,0.01552 0.147461,0 0.318205,0 0.178506,-0.0078 0.34925,-0.03881 0.170745,-0.03881 0.287161,-0.116417 0.116417,-0.08537 0.1397,-0.232833 0.03105,-0.178506 -0.06209,-0.232833 -0.08537,-0.05433 -0.240594,-0.05433 h -0.884766 q -0.357012,0 -0.62865,-0.03881 -0.271639,-0.03881 -0.403578,-0.20955 -0.131939,-0.178505 -0.06985,-0.597605 0.06209,-0.457906 0.318205,-0.675217 0.263878,-0.225072 0.6985,-0.294922 0.434622,-0.06985 1.032228,-0.06985 0.225072,0 0.512233,0.0078 0.294922,0.0078 0.49671,0.03881 0.2406,0.02328 0.36477,0.07761 0.13194,0.04657 0.17851,0.155222 0.0466,0.100894 0.0155,0.318206 l -0.031,0.217311 q -0.0388,-0.07761 -0.22507,-0.116417 -0.17851,-0.04657 -0.442387,-0.06209 -0.263877,-0.01552 -0.551039,-0.01552 -0.287161,0 -0.535516,0 -0.178506,0 -0.325967,0.02328 -0.147461,0.01552 -0.240594,0.09313 -0.09313,0.06985 -0.124178,0.232834 -0.01552,0.124178 0.03105,0.186266 0.04657,0.05433 0.1397,0.06985 0.09313,0.01552 0.209549,0.01552 h 0.985661 q 0.325967,0 0.558801,0.06209 0.24059,0.05433 0.34925,0.248356 0.11642,0.186267 0.0543,0.589844 -0.0621,0.465667 -0.35701,0.682978 -0.294924,0.217311 -0.776113,0.287161 -0.473428,0.06209 -1.086555,0.06209 z m 4.012493,0 q -0.18626,0 -0.40357,-0.0078 -0.20955,-0.0078 -0.41134,-0.03105 -0.19403,-0.02328 -0.35701,-0.06985 -0.13194,-0.03104 -0.21731,-0.07761 -0.0854,-0.05433 -0.10866,-0.194027 -0.0233,-0.147462 0.0155,-0.457906 0.23283,0.08537 0.48119,0.1397 0.25611,0.04657 0.49671,0.06985 0.24059,0.01552 0.45014,0.01552 0.14746,0 0.31821,0 0.1785,-0.0078 0.34925,-0.03881 0.17074,-0.03881 0.28716,-0.116417 0.11642,-0.08537 0.1397,-0.232833 0.0311,-0.178506 -0.0621,-0.232833 -0.0854,-0.05433 -0.24059,-0.05433 h -0.88477 q -0.35701,0 -0.62865,-0.03881 -0.27164,-0.03881 -0.40358,-0.20955 -0.13194,-0.178505 -0.0699,-0.597605 0.0621,-0.457906 0.31821,-0.675217 0.26387,-0.225072 0.6985,-0.294922 0.43462,-0.06985 1.03222,-0.06985 0.22508,0 0.51224,0.0078 0.29492,0.0078 0.49671,0.03881 0.24059,0.02328 0.36477,0.07761 0.13194,0.04657 0.17851,0.155222 0.0466,0.100894 0.0155,0.318206 l -0.031,0.217311 q -0.0388,-0.07761 -0.22508,-0.116417 -0.1785,-0.04657 -0.44238,-0.06209 -0.26388,-0.01552 -0.55104,-0.01552 -0.28716,0 -0.53551,0 -0.17851,0 -0.32597,0.02328 -0.14746,0.01552 -0.2406,0.09313 -0.0931,0.06985 -0.12417,0.232834 -0.0155,0.124178 0.031,0.186266 0.0466,0.05433 0.1397,0.06985 0.0931,0.01552 0.20955,0.01552 h 0.98566 q 0.32596,0 0.5588,0.06209 0.24059,0.05433 0.34925,0.248356 0.11641,0.186267 0.0543,0.589844 -0.0621,0.465667 -0.35701,0.682978 -0.29493,0.217311 -0.77612,0.287161 -0.47342,0.06209 -1.08655,0.06209 z m 4.83517,-0.03104 q 0.10866,-0.752828 0.20955,-1.505656 0.10866,-0.752827 0.20955,-1.505655 0.0388,-0.294922 0.15522,-0.426861 0.11642,-0.131939 0.43463,-0.131939 0.40357,0 0.830435,0 0.43463,-0.0078 0.861489,0 0.42686,0 0.81491,0 0.35701,0.0078 0.62089,0.116417 0.26388,0.100894 0.38806,0.34925 0.12418,0.248355 0.0698,0.675216 -0.1009,0.6985 -0.47343,0.993422 -0.36477,0.287161 -0.90805,0.2794 -0.4579,-0.0078 -0.954619,-0.0078 -0.49671,0 -0.954615,0 0.0388,-0.287161 0.0543,-0.4191 0.0233,-0.1397 0.0621,-0.178505 0.0388,-0.04657 0.147465,-0.04657 0.15522,0 0.35701,0 0.20955,0 0.426859,0 0.21731,0 0.41134,0 0.13194,0 0.24059,-0.05433 0.11642,-0.06209 0.19403,-0.194028 0.0776,-0.131938 0.1009,-0.341488 0.0388,-0.248356 -0.031,-0.364773 -0.0698,-0.124177 -0.27164,-0.1397 -0.20955,-0.0078 -0.41134,-0.0078 -0.19403,0 -0.388059,0 -0.19403,0 -0.36477,0.0078 -0.0466,0 -0.10866,0.03881 -0.0543,0.03881 -0.0621,0.100894 -0.10089,0.690739 -0.20178,1.381478 -0.0931,0.682978 -0.186275,1.381478 z m 6.030384,0 h -0.8382 q -0.17074,0 -0.24059,-0.08537 -0.0621,-0.08537 -0.0233,-0.341489 l 0.34925,-2.514599 q 0.22508,-0.05433 0.65193,-0.116417 0.42686,-0.06209 0.93909,-0.06209 0.54328,0 0.84596,0.06209 0.31045,0.06209 0.43463,0.194028 0.13193,0.124178 0.14746,0.325967 0.0155,0.194027 -0.0233,0.473427 h -1.10984 l 0.0155,-0.108655 q 0.0233,-0.186267 -0.031,-0.271639 -0.0543,-0.08537 -0.14746,-0.108656 -0.0854,-0.02328 -0.18627,-0.02328 -0.14746,0 -0.27163,0.03104 -0.11642,0.03104 -0.17075,0.09313 z m 4.16771,0.04657 q -0.44238,0 -0.77611,-0.06985 -0.33373,-0.06985 -0.54328,-0.240594 -0.20955,-0.178506 -0.28716,-0.48895 -0.0776,-0.318206 -0.0155,-0.791633 0.0776,-0.512234 0.23283,-0.822678 0.16299,-0.318205 0.41134,-0.481189 0.25612,-0.170744 0.59761,-0.225072 0.34149,-0.06209 0.77611,-0.06209 0.44238,0 0.76835,0.06985 0.33373,0.06985 0.53552,0.248356 0.20955,0.170744 0.2794,0.481188 0.0776,0.310445 0.0155,0.791634 -0.0776,0.512233 -0.23284,0.830438 -0.15522,0.310445 -0.40357,0.481189 -0.24836,0.162984 -0.58985,0.225072 -0.33373,0.05433 -0.76835,0.05433 z m 0.0543,-0.566561 q 0.20955,0 0.35701,-0.07761 0.15522,-0.08537 0.25612,-0.302683 0.10089,-0.225072 0.15522,-0.644172 0.0621,-0.4191 0.0233,-0.636411 -0.0388,-0.225073 -0.17074,-0.302684 -0.12418,-0.08537 -0.33373,-0.08537 -0.20955,0 -0.36477,0.08537 -0.15522,0.07761 -0.26388,0.302684 -0.10089,0.217311 -0.16298,0.636411 -0.0621,0.4191 -0.0155,0.644172 0.0466,0.217311 0.1785,0.302683 0.13194,0.07761 0.34149,0.07761 z m 3.70982,1.451328 q -0.33373,0 -0.58985,-0.01552 -0.24835,-0.01552 -0.42686,-0.06985 -0.17074,-0.04657 -0.25611,-0.139699 -0.0854,-0.08537 -0.0621,-0.232834 0.008,-0.04657 0.0155,-0.124178 0.008,-0.07761 0.0155,-0.108655 0.0776,0.03881 0.27164,0.07761 0.20179,0.04657 0.44238,0.06985 0.24836,0.03104 0.44239,0.03104 0.44238,0 0.68297,-0.124177 0.24836,-0.116417 0.35702,-0.380295 0.10865,-0.271639 0.12417,-0.690738 l 0.13194,0.01552 q -0.11641,0.232833 -0.2794,0.364772 -0.15522,0.131939 -0.39581,0.194028 -0.23284,0.05433 -0.58985,0.05433 -0.48119,0 -0.76059,-0.116416 -0.2794,-0.124178 -0.37253,-0.426861 -0.0931,-0.310445 -0.0233,-0.861483 0.0699,-0.481189 0.20955,-0.783873 0.1397,-0.310444 0.38029,-0.481188 0.24836,-0.170745 0.63641,-0.232834 0.38806,-0.06209 0.95462,-0.06209 0.17074,0 0.41134,0.01552 0.24835,0.0078 0.49671,0.03104 0.25611,0.01552 0.44238,0.03104 0.19403,0.01552 0.25612,0.02328 -0.008,0.02328 -0.0233,0.108655 -0.0155,0.08537 -0.0388,0.201789 -0.0155,0.108656 -0.031,0.225072 l -0.25611,1.854906 q -0.0854,0.62865 -0.34149,0.962377 -0.24836,0.333728 -0.6985,0.457906 -0.44238,0.131939 -1.12536,0.131939 z m 0.36477,-1.722967 q 0.17851,0 0.33373,-0.04657 0.15522,-0.05433 0.27164,-0.194028 0.11641,-0.1397 0.15522,-0.395817 l 0.14746,-1.039988 q -0.0543,-0.0078 -0.23283,-0.01552 -0.17851,-0.01552 -0.3803,-0.01552 -0.24059,0 -0.38805,0.06985 -0.14746,0.06209 -0.23284,0.248356 -0.0776,0.186266 -0.13194,0.543277 -0.0466,0.341489 -0.0155,0.527756 0.0388,0.186266 0.15522,0.256116 0.11642,0.06209 0.31821,0.06209 z m 3.53906,0.791634 h -0.8382 q -0.17074,0 -0.24059,-0.08537 -0.0621,-0.08537 -0.0233,-0.341489 l 0.34925,-2.514599 q 0.22508,-0.05433 0.65194,-0.116417 0.42686,-0.06209 0.93909,-0.06209 0.54328,0 0.84596,0.06209 0.31045,0.06209 0.43463,0.194028 0.13193,0.124178 0.14746,0.325967 0.0155,0.194027 -0.0233,0.473427 h -1.10984 l 0.0155,-0.108655 q 0.0233,-0.186267 -0.031,-0.271639 -0.0543,-0.08537 -0.14746,-0.108656 -0.0854,-0.02328 -0.18627,-0.02328 -0.14746,0 -0.27163,0.03104 -0.11642,0.03104 -0.17075,0.09313 z m 4.03577,0.03881 q -0.54327,0 -0.877,-0.03881 -0.32597,-0.03104 -0.48895,-0.131939 -0.16299,-0.100895 -0.20179,-0.287161 -0.0388,-0.186267 0,-0.481189 0.0543,-0.395817 0.16298,-0.597606 0.10866,-0.20955 0.31045,-0.287161 0.20955,-0.07761 0.52775,-0.07761 0.20179,0 0.45015,0.0078 0.24835,0 0.48895,0.0078 0.24835,0.0078 0.42686,0.03104 0.1785,0.01552 0.24835,0.03104 0.031,-0.240594 0.008,-0.380294 -0.0155,-0.1397 -0.10089,-0.20955 -0.0854,-0.07761 -0.24059,-0.100895 -0.14747,-0.02328 -0.37254,-0.02328 -0.26388,0 -0.54328,0.0078 -0.27163,0.0078 -0.52775,0.03104 -0.24836,0.02328 -0.46567,0.05433 l 0.0388,-0.217311 q 0.031,-0.20955 0.13194,-0.310444 0.10865,-0.100894 0.27164,-0.131939 0.1785,-0.0388 0.53551,-0.05433 0.36477,-0.01552 0.77611,-0.01552 0.52,0 0.86149,0.05433 0.34925,0.05433 0.52775,0.194028 0.18627,0.1397 0.23283,0.4191 0.0466,0.271638 -0.0155,0.729544 l -0.22507,1.544461 q -0.1397,0.116416 -0.64417,0.178505 -0.49671,0.05433 -1.29611,0.05433 z m 0.0621,-0.481189 q 0.31045,0 0.51224,-0.02328 0.20955,-0.02328 0.30268,-0.07761 l 0.11642,-0.869244 q -0.0776,-0.02328 -0.23284,-0.03881 -0.14746,-0.01552 -0.30268,-0.02328 -0.14746,-0.0078 -0.2406,-0.0078 -0.18626,0 -0.31044,0.03104 -0.11642,0.03104 -0.17851,0.1397 -0.0621,0.108656 -0.10089,0.333728 -0.0233,0.194027 -0.008,0.318205 0.0233,0.116417 0.12418,0.170745 0.10865,0.04657 0.3182,0.04657 z m 2.90266,0.442384 q -0.26388,0 -0.33373,-0.07761 -0.0699,-0.07761 -0.031,-0.34925 l 0.34925,-2.475794 q 0.12418,-0.04657 0.3182,-0.07761 0.19403,-0.0388 0.4191,-0.06209 0.23284,-0.03104 0.46567,-0.04657 0.24059,-0.02328 0.45014,-0.02328 0.30269,0 0.52,0.04657 0.22507,0.04657 0.36477,0.178506 0.14746,0.131939 0.21731,0.395816 l -0.17074,-0.0078 q 0.0931,-0.201789 0.24835,-0.325966 0.15523,-0.124178 0.33373,-0.178506 0.18627,-0.06209 0.36477,-0.08537 0.17851,-0.02328 0.31045,-0.02328 0.53551,0 0.8382,0.09313 0.30268,0.08537 0.40358,0.325966 0.10089,0.232834 0.0388,0.659695 l -0.23283,1.645355 q -0.0233,0.170744 -0.0776,0.256117 -0.0466,0.08537 -0.1397,0.108655 -0.0854,0.02328 -0.25612,0.02328 h -0.73731 q 0.0776,-0.519995 0.14747,-1.032228 0.0776,-0.519994 0.1397,-1.039989 0.0466,-0.302683 -0.0543,-0.395816 -0.1009,-0.09313 -0.33373,-0.09313 -0.10089,0 -0.20179,0.03104 -0.10089,0.03104 -0.17074,0.08537 -0.0699,0.05433 -0.0776,0.131939 l -0.33373,2.312811 h -1.16417 l 0.30268,-2.157589 q 0.031,-0.20955 -0.0776,-0.294922 -0.10865,-0.09313 -0.32596,-0.09313 -0.12418,0 -0.21731,0.02328 -0.0931,0.01552 -0.15523,0.05433 -0.0621,0.03104 -0.0776,0.100894 l -0.32596,2.367139 z m 5.89069,0 q -0.26388,0 -0.33373,-0.07761 -0.0698,-0.07761 -0.031,-0.34925 l 0.34925,-2.475794 q 0.12418,-0.04657 0.3182,-0.07761 0.19403,-0.0388 0.4191,-0.06209 0.23284,-0.03104 0.46567,-0.04657 0.24059,-0.02328 0.45014,-0.02328 0.30269,0 0.52,0.04657 0.22507,0.04657 0.36477,0.178506 0.14746,0.131939 0.21731,0.395816 l -0.17074,-0.0078 q 0.0931,-0.201789 0.24835,-0.325966 0.15523,-0.124178 0.33373,-0.178506 0.18627,-0.06209 0.36477,-0.08537 0.17851,-0.02328 0.31045,-0.02328 0.53551,0 0.8382,0.09313 0.30268,0.08537 0.40357,0.325966 0.1009,0.232834 0.0388,0.659695 l -0.23283,1.645355 q -0.0233,0.170744 -0.0776,0.256117 -0.0466,0.08537 -0.1397,0.108655 -0.0854,0.02328 -0.25612,0.02328 h -0.73731 q 0.0776,-0.519995 0.14747,-1.032228 0.0776,-0.519994 0.1397,-1.039989 0.0466,-0.302683 -0.0543,-0.395816 -0.1009,-0.09313 -0.33373,-0.09313 -0.10089,0 -0.20179,0.03104 -0.10089,0.03104 -0.17074,0.08537 -0.0699,0.05433 -0.0776,0.131939 l -0.33373,2.312811 h -1.16417 l 0.30268,-2.157589 q 0.0311,-0.20955 -0.0776,-0.294922 -0.10865,-0.09313 -0.32596,-0.09313 -0.12418,0 -0.21731,0.02328 -0.0931,0.01552 -0.15523,0.05433 -0.0621,0.03104 -0.0776,0.100894 l -0.32596,2.367139 z m 6.35635,0.03104 q -0.51999,0 -0.69074,-0.201789 -0.17074,-0.201789 -0.10865,-0.659694 l 0.32597,-2.266244 h 1.16416 l -0.3182,2.219677 q -0.0388,0.240595 0.0233,0.34925 0.0621,0.100894 0.23283,0.100894 0.1009,0 0.17075,-0.01552 0.0699,-0.01552 0.0931,-0.02328 l -0.0621,0.426861 q -0.031,0.0078 -0.12418,0.02328 -0.0854,0.01552 -0.25611,0.03104 -0.16299,0.01552 -0.45015,0.01552 z m 0.17075,-3.500261 q -0.2794,0 -0.38806,-0.06985 -0.10089,-0.06985 -0.0776,-0.256116 0.031,-0.186267 0.15522,-0.256117 0.13194,-0.07761 0.41134,-0.07761 0.27164,0.0078 0.37253,0.07761 0.1009,0.06985 0.0699,0.256117 -0.0233,0.186266 -0.14746,0.256116 -0.11641,0.06985 -0.39581,0.06985 z m 1.36595,3.469217 q -0.29492,0 -0.24836,-0.302684 l 0.36477,-2.607733 q 0.14747,-0.05433 0.39582,-0.100894 0.25612,-0.04657 0.59761,-0.07761 0.34925,-0.03104 0.76835,-0.03104 0.58984,0 0.92357,0.06985 0.34149,0.06209 0.48119,0.225073 0.14746,0.155222 0.16298,0.419099 0.0155,0.263878 -0.0466,0.659695 l -0.18626,1.311627 q -0.0233,0.170745 -0.0621,0.271639 -0.0388,0.09313 -0.1397,0.131939 -0.1009,0.03881 -0.30269,0.03881 l -0.70626,-0.0078 0.2794,-2.017889 q 0.0388,-0.256117 -0.10089,-0.364772 -0.13194,-0.108656 -0.38806,-0.108656 -0.18626,0 -0.35701,0.03881 -0.16298,0.0388 -0.24835,0.100894 l -0.32597,2.351617 z m 5.19218,0.931333 q -0.33372,0 -0.58984,-0.01552 -0.24836,-0.01552 -0.42686,-0.06985 -0.17075,-0.04657 -0.25612,-0.139699 -0.0854,-0.08537 -0.0621,-0.232834 0.008,-0.04657 0.0155,-0.124178 0.008,-0.07761 0.0155,-0.108655 0.0776,0.03881 0.27164,0.07761 0.20179,0.04657 0.44238,0.06985 0.24836,0.03104 0.44238,0.03104 0.44239,0 0.68298,-0.124177 0.24836,-0.116417 0.35701,-0.380295 0.10866,-0.271639 0.12418,-0.690738 l 0.13194,0.01552 q -0.11642,0.232833 -0.2794,0.364772 -0.15522,0.131939 -0.39582,0.194028 -0.23283,0.05433 -0.58984,0.05433 -0.48119,0 -0.76059,-0.116416 -0.2794,-0.124178 -0.37253,-0.426861 -0.0931,-0.310445 -0.0233,-0.861483 0.0699,-0.481189 0.20955,-0.783873 0.1397,-0.310444 0.3803,-0.481188 0.24835,-0.170745 0.63641,-0.232834 0.38805,-0.06209 0.95461,-0.06209 0.17075,0 0.41134,0.01552 0.24836,0.0078 0.49671,0.03104 0.25612,0.01552 0.44239,0.03104 0.19402,0.01552 0.25611,0.02328 -0.008,0.02328 -0.0233,0.108655 -0.0155,0.08537 -0.0388,0.201789 -0.0155,0.108656 -0.031,0.225072 l -0.25612,1.854906 q -0.0854,0.62865 -0.34149,0.962377 -0.24835,0.333728 -0.6985,0.457906 -0.44238,0.131939 -1.12536,0.131939 z m 0.36478,-1.722967 q 0.1785,0 0.33372,-0.04657 0.15523,-0.05433 0.27164,-0.194028 0.11642,-0.1397 0.15522,-0.395817 l 0.14747,-1.039988 q -0.0543,-0.0078 -0.23284,-0.01552 -0.1785,-0.01552 -0.38029,-0.01552 -0.2406,0 -0.38806,0.06985 -0.14746,0.06209 -0.23283,0.248356 -0.0776,0.186266 -0.13194,0.543277 -0.0466,0.341489 -0.0155,0.527756 0.0388,0.186266 0.15522,0.256116 0.11642,0.06209 0.31821,0.06209 z"
     id="text1-3"
     aria-label="Coffeeless Programming" />
  <path
     style="font-style:italic;font-weight:bold;font-size:7.76111px;line-height:0;font-family:Genos;-inkscape-font-specification:'Genos Bold Italic';fill:#ffffff;stroke-width:0.265;stroke-dashoffset:30.8981"
     d="m 0.03913628,6.2905584 q 0.08537,-0.62865 0.325967,-0.993422 0.248355,-0.372534 0.620888,-0.551039 0.37253402,-0.178506 0.84596102,-0.232834 0.481189,-0.05433 1.024467,-0.05433 0.325967,0 0.613128,0.02328 0.294922,0.01552 0.589844,0.05433 0.310444,0.04657 0.395817,0.162983 0.09313,0.108656 0.06209,0.318206 l -0.05433,0.388055 q -0.217311,-0.08537 -0.512234,-0.1397 -0.294922,-0.05433 -0.597605,-0.07761 -0.302683,-0.03104 -0.543278,-0.03104 -0.465666,0 -0.76835,0.07761 -0.294922,0.07761 -0.465666,0.318205 -0.162984,0.240595 -0.232834,0.729544 -0.06209,0.465667 0.03104,0.714023 0.100894,0.240594 0.395817,0.325966 0.302683,0.07761 0.814916,0.07761 0.232833,0 0.48895,-0.02328 0.256117,-0.02328 0.543278,-0.06985 0.287161,-0.05433 0.597605,-0.116417 l -0.05433,0.357011 q -0.02328,0.194028 -0.155222,0.318206 -0.124178,0.116417 -0.457905,0.155222 -0.294923,0.04657 -0.613128,0.06209 -0.318206,0.02328 -0.636411,0.02328 -0.644172,0 -1.109839,-0.06985 -0.45790502,-0.06985 -0.74506602,-0.256116 -0.2794,-0.194028 -0.388056,-0.551039 -0.100894,-0.364772 -0.01552,-0.939094 z m 6.31755002,1.808338 q -0.442383,0 -0.776111,-0.06985 -0.333727,-0.06985 -0.543277,-0.240594 -0.20955,-0.178506 -0.287161,-0.48895 -0.07761,-0.318206 -0.01552,-0.791633 0.07761,-0.512234 0.232834,-0.822678 0.162983,-0.318205 0.411338,-0.481189 0.256117,-0.170744 0.597606,-0.225072 0.341489,-0.06209 0.776111,-0.06209 0.442383,0 0.76835,0.06985 0.333728,0.06985 0.535516,0.248356 0.20955,0.170744 0.2794,0.481188 0.07761,0.310445 0.01552,0.791634 -0.07761,0.512233 -0.232834,0.830438 -0.155222,0.310445 -0.403577,0.481189 -0.248356,0.162984 -0.589845,0.225072 -0.333728,0.05433 -0.76835,0.05433 z m 0.05433,-0.566561 q 0.20955,0 0.357011,-0.07761 0.155222,-0.08537 0.256117,-0.302683 0.100894,-0.225072 0.155222,-0.644172 0.06209,-0.4191 0.02328,-0.636411 -0.03881,-0.225073 -0.170744,-0.302684 -0.124178,-0.08537 -0.333728,-0.08537 -0.20955,0 -0.364772,0.08537 -0.155222,0.07761 -0.263878,0.302684 -0.100894,0.217311 -0.162983,0.636411 -0.06209,0.4191 -0.01552,0.644172 0.04657,0.217311 0.178505,0.302683 0.131939,0.07761 0.34149,0.07761 z m 2.561172,-2.211916 h 0.2794 l 0.0388,-0.302683 q 0.04657,-0.357011 0.232834,-0.605367 0.186266,-0.256117 0.6286497,-0.2794 0.287161,-0.01552 0.613127,-0.0078 0.325967,0.0078 0.613128,0.03104 0.294922,0.02328 0.465667,0.03881 l -0.08537,0.605367 q -0.04657,-0.01552 -0.170744,-0.02328 -0.116417,-0.01552 -0.271639,-0.02328 -0.155222,-0.0078 -0.287161,-0.0078 -0.131939,-0.0078 -0.201789,-0.0078 -0.217311,0 -0.294922,0.09313 -0.06985,0.09313 -0.09313,0.263878 l -0.03105,0.225072 h 2.072217 l -0.08537,0.605366 H 10.32262 l -0.294922,2.126545 H 9.2283043 q -0.225073,0 -0.2794,-0.07761 -0.05433,-0.08537 -0.03105,-0.2794 l 0.248356,-1.769533 h -0.287161 z m 3.1820547,0.01552 0.2794,-0.01552 0.03881,-0.302683 q 0.04657,-0.357011 0.232834,-0.605367 0.186266,-0.256117 0.62865,-0.2794 0.287161,-0.01552 0.613127,-0.0078 0.325967,0.0078 0.613128,0.03104 0.294922,0.02328 0.465667,0.03881 l -0.07761,0.605367 q -0.05433,-0.01552 -0.178505,-0.02328 -0.116417,-0.01552 -0.271639,-0.02328 -0.147461,-0.0078 -0.287161,-0.0078 -0.131939,-0.0078 -0.201789,-0.0078 -0.217311,0 -0.294922,0.09313 -0.06985,0.09313 -0.09313,0.263878 l -0.03104,0.225072 h 1.280583 l -0.08537,0.605366 h -1.280583 l -0.294922,2.126545 h -0.799394 q -0.225073,0 -0.2794,-0.07761 -0.05433,-0.08537 -0.03104,-0.2794 l 0.248356,-1.769533 -0.2794,-0.01552 z m 4.656663,2.762955 q -0.543278,0 -0.884767,-0.06209 -0.341488,-0.06985 -0.527755,-0.232833 -0.178506,-0.170744 -0.217311,-0.465667 -0.03881,-0.294922 0.02328,-0.760588 0.09313,-0.613128 0.310445,-0.970139 0.217311,-0.364772 0.659694,-0.519994 0.442383,-0.155223 1.195211,-0.155223 0.884766,0 1.202972,0.287161 0.318205,0.287162 0.232833,0.900289 l -0.08537,0.597606 h -2.157589 q 0.02328,-0.162984 0.108656,-0.271639 0.09313,-0.116417 0.294922,-0.116417 h 0.776111 l 0.02328,-0.162983 q 0.03105,-0.310445 -0.06985,-0.473428 -0.100894,-0.162983 -0.450144,-0.162983 -0.287161,0 -0.457905,0.08537 -0.162984,0.08537 -0.256117,0.302683 -0.09313,0.217311 -0.155222,0.644172 -0.05433,0.364773 -0.0078,0.5588 0.05433,0.186267 0.232833,0.256117 0.186267,0.06209 0.551039,0.06209 0.131939,0 0.357011,-0.0078 0.225072,-0.0078 0.465666,-0.01552 0.240595,-0.01552 0.4191,-0.02328 0.178506,-0.01552 0.225072,-0.03104 l -0.01552,0.1397 q -0.01552,0.108655 -0.06985,0.232833 -0.05433,0.116417 -0.162983,0.194028 -0.155222,0.108655 -0.535517,0.1397 -0.372533,0.03104 -1.024466,0.03104 z m 3.98921,0 q -0.543278,0 -0.884766,-0.06209 -0.341489,-0.06985 -0.527756,-0.232833 -0.178505,-0.170744 -0.217311,-0.465667 -0.03881,-0.294922 0.02328,-0.760588 0.09313,-0.613128 0.310445,-0.970139 0.217311,-0.364772 0.659694,-0.519994 0.442383,-0.155223 1.195211,-0.155223 0.884766,0 1.202972,0.287161 0.318205,0.287162 0.232833,0.900289 l -0.08537,0.597606 H 20.55176 q 0.02328,-0.162984 0.108655,-0.271639 0.09313,-0.116417 0.294922,-0.116417 h 0.776111 l 0.02328,-0.162983 q 0.03104,-0.310445 -0.06985,-0.473428 -0.100895,-0.162983 -0.450145,-0.162983 -0.287161,0 -0.457905,0.08537 -0.162984,0.08537 -0.256117,0.302683 -0.09313,0.217311 -0.155222,0.644172 -0.05433,0.364773 -0.0078,0.5588 0.05433,0.186267 0.232833,0.256117 0.186267,0.06209 0.551039,0.06209 0.131939,0 0.357011,-0.0078 0.225072,-0.0078 0.465666,-0.01552 0.240595,-0.01552 0.4191,-0.02328 0.178506,-0.01552 0.225073,-0.03104 l -0.01552,0.1397 q -0.01552,0.108655 -0.06985,0.232833 -0.05433,0.116417 -0.162983,0.194028 -0.155222,0.108655 -0.535516,0.1397 -0.372534,0.03104 -1.024467,0.03104 z m 3.282949,-0.01552 q -0.543278,0 -0.760589,-0.178506 -0.217311,-0.186266 -0.147461,-0.651933 l 0.380295,-2.700866 q 0.02328,-0.170744 0.06985,-0.263878 0.04657,-0.09313 0.1397,-0.124177 0.100894,-0.03104 0.2794,-0.03104 h 0.760588 q -0.0078,0.02328 -0.0388,0.170744 -0.03105,0.147462 -0.06209,0.325967 l -0.34925,2.491316 q -0.03881,0.2794 0.0078,0.395817 0.05433,0.108655 0.248356,0.108655 0.06985,0 0.147461,-0.01552 0.08537,-0.01552 0.100894,-0.02328 l -0.05433,0.426861 q -0.05433,0.0078 -0.20955,0.03881 -0.155222,0.03104 -0.512233,0.03104 z m 2.762949,0.01552 q -0.543277,0 -0.884766,-0.06209 -0.341489,-0.06985 -0.527756,-0.232833 -0.178505,-0.170744 -0.217311,-0.465667 -0.0388,-0.294922 0.02328,-0.760588 0.09313,-0.613128 0.310444,-0.970139 0.217311,-0.364772 0.659694,-0.519994 0.442384,-0.155223 1.195211,-0.155223 0.884767,0 1.202972,0.287161 0.318206,0.287162 0.232834,0.900289 l -0.08537,0.597606 h -2.157588 q 0.02328,-0.162984 0.108655,-0.271639 0.09313,-0.116417 0.294923,-0.116417 h 0.776111 l 0.02328,-0.162983 q 0.03104,-0.310445 -0.06985,-0.473428 -0.100894,-0.162983 -0.450144,-0.162983 -0.287161,0 -0.457906,0.08537 -0.162983,0.08537 -0.256116,0.302683 -0.09313,0.217311 -0.155223,0.644172 -0.05433,0.364773 -0.0078,0.5588 0.05433,0.186267 0.232833,0.256117 0.186267,0.06209 0.551039,0.06209 0.131939,0 0.357011,-0.0078 0.225073,-0.0078 0.465667,-0.01552 0.240594,-0.01552 0.4191,-0.02328 0.178505,-0.01552 0.225072,-0.03104 l -0.01552,0.1397 q -0.01552,0.108655 -0.06985,0.232833 -0.05433,0.116417 -0.162983,0.194028 -0.155223,0.108655 -0.535517,0.1397 -0.372533,0.03104 -1.024467,0.03104 z m 3.709811,-0.01552 q -0.186267,0 -0.403578,-0.0078 -0.20955,-0.0078 -0.411339,-0.03105 -0.194028,-0.02328 -0.357011,-0.06985 -0.131939,-0.03104 -0.217311,-0.07761 -0.08537,-0.05433 -0.108656,-0.194027 -0.02328,-0.147462 0.01552,-0.457906 0.232833,0.08537 0.481188,0.1397 0.256117,0.04657 0.496711,0.06985 0.240595,0.01552 0.450145,0.01552 0.147461,0 0.318205,0 0.178506,-0.0078 0.34925,-0.03881 0.170745,-0.03881 0.287161,-0.116417 0.116417,-0.08537 0.1397,-0.232833 0.03105,-0.178506 -0.06209,-0.232833 -0.08537,-0.05433 -0.240594,-0.05433 H 30.40836 q -0.357012,0 -0.62865,-0.03881 -0.271639,-0.03881 -0.403578,-0.20955 -0.131939,-0.178505 -0.06985,-0.597605 0.06209,-0.457906 0.318205,-0.675217 0.263878,-0.225072 0.6985,-0.294922 0.434622,-0.06985 1.032228,-0.06985 0.225072,0 0.512233,0.0078 0.294922,0.0078 0.496711,0.03881 0.240595,0.02328 0.364772,0.07761 0.131939,0.04657 0.178506,0.155222 0.04657,0.100894 0.01552,0.318206 l -0.03104,0.217311 q -0.03881,-0.07761 -0.225072,-0.116417 -0.178506,-0.04657 -0.442384,-0.06209 -0.263877,-0.01552 -0.551039,-0.01552 -0.287161,0 -0.535516,0 -0.178506,0 -0.325967,0.02328 -0.147461,0.01552 -0.240594,0.09313 -0.09313,0.06985 -0.124178,0.232834 -0.01552,0.124178 0.03105,0.186266 0.04657,0.05433 0.1397,0.06985 0.09313,0.01552 0.209549,0.01552 h 0.985661 q 0.325967,0 0.5588,0.06209 0.240595,0.05433 0.34925,0.248356 0.116417,0.186267 0.05433,0.589844 -0.06209,0.465667 -0.357011,0.682978 -0.294922,0.217311 -0.776111,0.287161 -0.473428,0.06209 -1.086555,0.06209 z m 4.012497,0 q -0.186267,0 -0.403578,-0.0078 -0.20955,-0.0078 -0.411339,-0.03105 -0.194028,-0.02328 -0.357011,-0.06985 -0.131939,-0.03104 -0.217311,-0.07761 -0.08537,-0.05433 -0.108656,-0.194027 -0.02328,-0.147462 0.01552,-0.457906 0.232833,0.08537 0.481188,0.1397 0.256117,0.04657 0.496711,0.06985 0.240595,0.01552 0.450145,0.01552 0.147461,0 0.318205,0 0.178506,-0.0078 0.34925,-0.03881 0.170745,-0.03881 0.287161,-0.116417 0.116417,-0.08537 0.1397,-0.232833 0.03105,-0.178506 -0.06209,-0.232833 -0.08537,-0.05433 -0.240594,-0.05433 h -0.884767 q -0.357011,0 -0.628649,-0.03881 -0.271639,-0.03881 -0.403578,-0.20955 -0.131939,-0.178505 -0.06985,-0.597605 0.06209,-0.457906 0.318205,-0.675217 0.263878,-0.225072 0.6985,-0.294922 0.434622,-0.06985 1.032228,-0.06985 0.225072,0 0.512233,0.0078 0.294922,0.0078 0.496711,0.03881 0.240595,0.02328 0.364772,0.07761 0.131939,0.04657 0.178506,0.155222 0.04657,0.100894 0.01552,0.318206 l -0.03104,0.217311 q -0.03881,-0.07761 -0.225073,-0.116417 -0.178505,-0.04657 -0.442383,-0.06209 -0.263878,-0.01552 -0.551039,-0.01552 -0.287161,0 -0.535516,0 -0.178506,0 -0.325967,0.02328 -0.147461,0.01552 -0.240594,0.09313 -0.09313,0.06985 -0.124178,0.232834 -0.01552,0.124178 0.03104,0.186266 0.04657,0.05433 0.1397,0.06985 0.09313,0.01552 0.20955,0.01552 h 0.985661 q 0.325967,0 0.5588,0.06209 0.240595,0.05433 0.34925,0.248356 0.116417,0.186267 0.05433,0.589844 -0.06209,0.465667 -0.357011,0.682978 -0.294922,0.217311 -0.776111,0.287161 -0.473428,0.06209 -1.086555,0.06209 z m 4.835167,-0.03104 q 0.108655,-0.752828 0.20955,-1.505656 0.108655,-0.752827 0.209549,-1.505655 0.03881,-0.294922 0.155223,-0.426861 0.116416,-0.131939 0.434622,-0.131939 0.403578,0 0.830439,0 0.434622,-0.0078 0.861479,0 0.426867,0 0.814927,0 0.35701,0.0078 0.62089,0.116417 0.26388,0.100894 0.38806,0.34925 0.12417,0.248355 0.0699,0.675216 -0.1009,0.6985 -0.47343,0.993422 -0.36478,0.287161 -0.90806,0.2794 -0.457907,-0.0078 -0.954617,-0.0078 -0.496711,0 -0.954616,0 0.03881,-0.287161 0.05433,-0.4191 0.02328,-0.1397 0.06209,-0.178505 0.0388,-0.04657 0.147461,-0.04657 0.155222,0 0.357011,0 0.20955,0 0.426861,0 0.217313,0 0.411343,0 0.13193,0 0.240587,-0.05433 0.11642,-0.06209 0.19403,-0.194028 0.0776,-0.131938 0.10089,-0.341488 0.0388,-0.248356 -0.031,-0.364773 -0.0698,-0.124177 -0.27163,-0.1397 -0.209557,-0.0078 -0.411347,-0.0078 -0.194024,0 -0.388051,0 -0.194028,0 -0.364773,0.0078 -0.04657,0 -0.108655,0.03881 -0.05433,0.03881 -0.06209,0.100894 -0.100894,0.690739 -0.201789,1.381478 -0.09313,0.682978 -0.186266,1.381478 z m 6.030389,0 h -0.8382 q -0.17074,0 -0.24059,-0.08537 -0.0621,-0.08537 -0.0233,-0.341489 l 0.34925,-2.514599 q 0.22508,-0.05433 0.65193,-0.116417 0.42686,-0.06209 0.93909,-0.06209 0.54328,0 0.84596,0.06209 0.31045,0.06209 0.43463,0.194028 0.13193,0.124178 0.14746,0.325967 0.0155,0.194027 -0.0233,0.473427 h -1.10984 l 0.0155,-0.108655 q 0.0233,-0.186267 -0.031,-0.271639 -0.0543,-0.08537 -0.14746,-0.108656 -0.0854,-0.02328 -0.18627,-0.02328 -0.14746,0 -0.27163,0.03104 -0.11642,0.03104 -0.17075,0.09313 z m 4.16771,0.04657 q -0.44238,0 -0.77611,-0.06985 -0.33373,-0.06985 -0.54328,-0.240594 -0.20955,-0.178506 -0.28716,-0.48895 -0.0776,-0.318206 -0.0155,-0.791633 0.0776,-0.512234 0.23283,-0.822678 0.16299,-0.318205 0.41134,-0.481189 0.25612,-0.170744 0.59761,-0.225072 0.34149,-0.06209 0.77611,-0.06209 0.44238,0 0.76835,0.06985 0.33373,0.06985 0.53552,0.248356 0.20955,0.170744 0.2794,0.481188 0.0776,0.310445 0.0155,0.791634 -0.0776,0.512233 -0.23284,0.830438 -0.15522,0.310445 -0.40357,0.481189 -0.24836,0.162984 -0.58985,0.225072 -0.33373,0.05433 -0.76835,0.05433 z m 0.0543,-0.566561 q 0.20955,0 0.35701,-0.07761 0.15522,-0.08537 0.25612,-0.302683 0.10089,-0.225072 0.15522,-0.644172 0.0621,-0.4191 0.0233,-0.636411 -0.0388,-0.225073 -0.17074,-0.302684 -0.12418,-0.08537 -0.33373,-0.08537 -0.20955,0 -0.36477,0.08537 -0.15522,0.07761 -0.26388,0.302684 -0.10089,0.217311 -0.16298,0.636411 -0.0621,0.4191 -0.0155,0.644172 0.0466,0.217311 0.1785,0.302683 0.13194,0.07761 0.34149,0.07761 z m 3.70982,1.451328 q -0.33373,0 -0.58985,-0.01552 -0.24835,-0.01552 -0.42686,-0.06985 -0.17074,-0.04657 -0.25611,-0.139699 -0.0854,-0.08537 -0.0621,-0.232834 0.008,-0.04657 0.0155,-0.124178 0.008,-0.07761 0.0155,-0.108655 0.0776,0.03881 0.27164,0.07761 0.20179,0.04657 0.44238,0.06985 0.24836,0.03104 0.44239,0.03104 0.44238,0 0.68297,-0.124177 0.24836,-0.116417 0.35702,-0.380295 0.10865,-0.271639 0.12417,-0.690738 l 0.13194,0.01552 q -0.11641,0.232833 -0.2794,0.364772 -0.15522,0.131939 -0.39581,0.194028 -0.23284,0.05433 -0.58985,0.05433 -0.48119,0 -0.76059,-0.116416 -0.2794,-0.124178 -0.37253,-0.426861 -0.0931,-0.310445 -0.0233,-0.861483 0.0699,-0.481189 0.20955,-0.783873 0.1397,-0.310444 0.38029,-0.481188 0.24836,-0.170745 0.63641,-0.232834 0.38806,-0.06209 0.95462,-0.06209 0.17074,0 0.41134,0.01552 0.24835,0.0078 0.49671,0.03104 0.25611,0.01552 0.44238,0.03104 0.19403,0.01552 0.25612,0.02328 -0.008,0.02328 -0.0233,0.108655 -0.0155,0.08537 -0.0388,0.201789 -0.0155,0.108656 -0.031,0.225072 l -0.25611,1.854906 q -0.0854,0.62865 -0.34149,0.962377 -0.24836,0.333728 -0.6985,0.457906 -0.44238,0.131939 -1.12536,0.131939 z m 0.36477,-1.722967 q 0.17851,0 0.33373,-0.04657 0.15522,-0.05433 0.27164,-0.194028 0.11641,-0.1397 0.15522,-0.395817 l 0.14746,-1.039988 q -0.0543,-0.0078 -0.23283,-0.01552 -0.17851,-0.01552 -0.3803,-0.01552 -0.24059,0 -0.38805,0.06985 -0.14746,0.06209 -0.23284,0.248356 -0.0776,0.186266 -0.13194,0.543277 -0.0466,0.341489 -0.0155,0.527756 0.0388,0.186266 0.15522,0.256116 0.11642,0.06209 0.31821,0.06209 z m 3.53906,0.791634 h -0.8382 q -0.17074,0 -0.24059,-0.08537 -0.0621,-0.08537 -0.0233,-0.341489 l 0.34925,-2.514599 q 0.22508,-0.05433 0.65194,-0.116417 0.42686,-0.06209 0.93909,-0.06209 0.54328,0 0.84596,0.06209 0.31045,0.06209 0.43463,0.194028 0.13193,0.124178 0.14746,0.325967 0.0155,0.194027 -0.0233,0.473427 h -1.10984 l 0.0155,-0.108655 q 0.0233,-0.186267 -0.031,-0.271639 -0.0543,-0.08537 -0.14746,-0.108656 -0.0854,-0.02328 -0.18627,-0.02328 -0.14746,0 -0.27163,0.03104 -0.11642,0.03104 -0.17075,0.09313 z m 4.03577,0.03881 q -0.54327,0 -0.877,-0.03881 -0.32597,-0.03104 -0.48895,-0.131939 -0.16299,-0.100895 -0.20179,-0.287161 -0.0388,-0.186267 0,-0.481189 0.0543,-0.395817 0.16298,-0.597606 0.10866,-0.20955 0.31045,-0.287161 0.20955,-0.07761 0.52775,-0.07761 0.20179,0 0.45015,0.0078 0.24835,0 0.48895,0.0078 0.24835,0.0078 0.42686,0.03104 0.1785,0.01552 0.24835,0.03104 0.031,-0.240594 0.008,-0.380294 -0.0155,-0.1397 -0.10089,-0.20955 -0.0854,-0.07761 -0.24059,-0.100895 -0.14747,-0.02328 -0.37254,-0.02328 -0.26388,0 -0.54328,0.0078 -0.27163,0.0078 -0.52775,0.03104 -0.24836,0.02328 -0.46567,0.05433 l 0.0388,-0.217311 q 0.031,-0.20955 0.13194,-0.310444 0.10865,-0.100894 0.27164,-0.131939 0.1785,-0.0388 0.53551,-0.05433 0.36477,-0.01552 0.77611,-0.01552 0.52,0 0.86149,0.05433 0.34925,0.05433 0.52775,0.194028 0.18627,0.1397 0.23283,0.4191 0.0466,0.271638 -0.0155,0.729544 l -0.22507,1.544461 q -0.1397,0.116416 -0.64417,0.178505 -0.49671,0.05433 -1.29611,0.05433 z m 0.0621,-0.481189 q 0.31045,0 0.51224,-0.02328 0.20955,-0.02328 0.30268,-0.07761 l 0.11642,-0.869244 q -0.0776,-0.02328 -0.23284,-0.03881 -0.14746,-0.01552 -0.30268,-0.02328 -0.14746,-0.0078 -0.2406,-0.0078 -0.18626,0 -0.31044,0.03104 -0.11642,0.03104 -0.17851,0.1397 -0.0621,0.108656 -0.10089,0.333728 -0.0233,0.194027 -0.008,0.318205 0.0233,0.116417 0.12418,0.170745 0.10865,0.04657 0.3182,0.04657 z m 2.90266,0.442384 q -0.26388,0 -0.33373,-0.07761 -0.0699,-0.07761 -0.031,-0.34925 l 0.34925,-2.475794 q 0.12418,-0.04657 0.3182,-0.07761 0.19403,-0.0388 0.4191,-0.06209 0.23284,-0.03104 0.46567,-0.04657 0.24059,-0.02328 0.45014,-0.02328 0.30269,0 0.52,0.04657 0.22507,0.04657 0.36477,0.178506 0.14746,0.131939 0.21731,0.395816 l -0.17074,-0.0078 q 0.0931,-0.201789 0.24835,-0.325966 0.15523,-0.124178 0.33373,-0.178506 0.18627,-0.06209 0.36477,-0.08537 0.17851,-0.02328 0.31045,-0.02328 0.53551,0 0.8382,0.09313 0.30268,0.08537 0.40358,0.325966 0.10089,0.232834 0.0388,0.659695 l -0.23283,1.645355 q -0.0233,0.170744 -0.0776,0.256117 -0.0466,0.08537 -0.1397,0.108655 -0.0854,0.02328 -0.25612,0.02328 h -0.73731 q 0.0776,-0.519995 0.14747,-1.032228 0.0776,-0.519994 0.1397,-1.039989 0.0466,-0.302683 -0.0543,-0.395816 -0.1009,-0.09313 -0.33373,-0.09313 -0.10089,0 -0.20179,0.03104 -0.10089,0.03104 -0.17074,0.08537 -0.0699,0.05433 -0.0776,0.131939 l -0.33373,2.312811 h -1.16417 l 0.30268,-2.157589 q 0.031,-0.20955 -0.0776,-0.294922 -0.10865,-0.09313 -0.32596,-0.09313 -0.12418,0 -0.21731,0.02328 -0.0931,0.01552 -0.15523,0.05433 -0.0621,0.03104 -0.0776,0.100894 l -0.32596,2.367139 z m 5.89069,0 q -0.26388,0 -0.33373,-0.07761 -0.0698,-0.07761 -0.031,-0.34925 l 0.34925,-2.475794 q 0.12418,-0.04657 0.3182,-0.07761 0.19403,-0.0388 0.4191,-0.06209 0.23284,-0.03104 0.46567,-0.04657 0.24059,-0.02328 0.45014,-0.02328 0.30269,0 0.52,0.04657 0.22507,0.04657 0.36477,0.178506 0.14746,0.131939 0.21731,0.395816 l -0.17074,-0.0078 q 0.0931,-0.201789 0.24835,-0.325966 0.15523,-0.124178 0.33373,-0.178506 0.18627,-0.06209 0.36477,-0.08537 0.17851,-0.02328 0.31045,-0.02328 0.53551,0 0.8382,0.09313 0.30268,0.08537 0.40357,0.325966 0.1009,0.232834 0.0388,0.659695 l -0.23283,1.645355 q -0.0233,0.170744 -0.0776,0.256117 -0.0466,0.08537 -0.1397,0.108655 -0.0854,0.02328 -0.25612,0.02328 h -0.73731 q 0.0776,-0.519995 0.14747,-1.032228 0.0776,-0.519994 0.1397,-1.039989 0.0466,-0.302683 -0.0543,-0.395816 -0.1009,-0.09313 -0.33373,-0.09313 -0.10089,0 -0.20179,0.03104 -0.10089,0.03104 -0.17074,0.08537 -0.0699,0.05433 -0.0776,0.131939 l -0.33373,2.312811 h -1.16417 l 0.30268,-2.157589 q 0.0311,-0.20955 -0.0776,-0.294922 -0.10865,-0.09313 -0.32596,-0.09313 -0.12418,0 -0.21731,0.02328 -0.0931,0.01552 -0.15523,0.05433 -0.0621,0.03104 -0.0776,0.100894 l -0.32596,2.367139 z m 6.35635,0.03104 q -0.51999,0 -0.69074,-0.201789 -0.17074,-0.201789 -0.10865,-0.659694 l 0.32597,-2.266244 h 1.16416 l -0.3182,2.219677 q -0.0388,0.240595 0.0233,0.34925 0.0621,0.100894 0.23283,0.100894 0.1009,0 0.17075,-0.01552 0.0699,-0.01552 0.0931,-0.02328 l -0.0621,0.426861 q -0.031,0.0078 -0.12418,0.02328 -0.0854,0.01552 -0.25611,0.03104 -0.16299,0.01552 -0.45015,0.01552 z m 0.17075,-3.500261 q -0.2794,0 -0.38806,-0.06985 -0.10089,-0.06985 -0.0776,-0.256116 0.031,-0.186267 0.15522,-0.256117 0.13194,-0.07761 0.41134,-0.07761 0.27164,0.0078 0.37253,0.07761 0.1009,0.06985 0.0699,0.256117 -0.0233,0.186266 -0.14746,0.256116 -0.11641,0.06985 -0.39581,0.06985 z m 1.36595,3.469217 q -0.29492,0 -0.24836,-0.302684 l 0.36477,-2.607733 q 0.14747,-0.05433 0.39582,-0.100894 0.25612,-0.04657 0.59761,-0.07761 0.34925,-0.03104 0.76835,-0.03104 0.58984,0 0.92357,0.06985 0.34149,0.06209 0.48119,0.225073 0.14746,0.155222 0.16298,0.419099 0.0155,0.263878 -0.0466,0.659695 l -0.18626,1.311627 q -0.0233,0.170745 -0.0621,0.271639 -0.0388,0.09313 -0.1397,0.131939 -0.1009,0.03881 -0.30269,0.03881 l -0.70626,-0.0078 0.2794,-2.017889 q 0.0388,-0.256117 -0.10089,-0.364772 -0.13194,-0.108656 -0.38806,-0.108656 -0.18626,0 -0.35701,0.03881 -0.16298,0.0388 -0.24835,0.100894 l -0.32597,2.351617 z m 5.19218,0.931333 q -0.33372,0 -0.58984,-0.01552 -0.24836,-0.01552 -0.42686,-0.06985 -0.17075,-0.04657 -0.25612,-0.139699 -0.0854,-0.08537 -0.0621,-0.232834 0.008,-0.04657 0.0155,-0.124178 0.008,-0.07761 0.0155,-0.108655 0.0776,0.03881 0.27164,0.07761 0.20179,0.04657 0.44238,0.06985 0.24836,0.03104 0.44238,0.03104 0.44239,0 0.68298,-0.124177 0.24836,-0.116417 0.35701,-0.380295 0.10866,-0.271639 0.12418,-0.690738 l 0.13194,0.01552 q -0.11642,0.232833 -0.2794,0.364772 -0.15522,0.131939 -0.39582,0.194028 -0.23283,0.05433 -0.58984,0.05433 -0.48119,0 -0.76059,-0.116416 -0.2794,-0.124178 -0.37253,-0.426861 -0.0931,-0.310445 -0.0233,-0.861483 0.0699,-0.481189 0.20955,-0.783873 0.1397,-0.310444 0.3803,-0.481188 0.24835,-0.170745 0.63641,-0.232834 0.38805,-0.06209 0.95461,-0.06209 0.17075,0 0.41134,0.01552 0.24836,0.0078 0.49671,0.03104 0.25612,0.01552 0.44239,0.03104 0.19402,0.01552 0.25611,0.02328 -0.008,0.02328 -0.0233,0.108655 -0.0155,0.08537 -0.0388,0.201789 -0.0155,0.108656 -0.031,0.225072 l -0.25612,1.854906 q -0.0854,0.62865 -0.34149,0.962377 -0.24835,0.333728 -0.6985,0.457906 -0.44238,0.131939 -1.12536,0.131939 z m 0.36478,-1.722967 q 0.1785,0 0.33372,-0.04657 0.15523,-0.05433 0.27164,-0.194028 0.11642,-0.1397 0.15522,-0.395817 l 0.14747,-1.039988 q -0.0543,-0.0078 -0.23284,-0.01552 -0.1785,-0.01552 -0.38029,-0.01552 -0.2406,0 -0.38806,0.06985 -0.14746,0.06209 -0.23283,0.248356 -0.0776,0.186266 -0.13194,0.543277 -0.0466,0.341489 -0.0155,0.527756 0.0388,0.186266 0.15522,0.256116 0.11642,0.06209 0.31821,0.06209 z"
     id="text1"
     aria-label="Coffeeless Programming" />
</svg>
